<svg width="23" height="23" viewBox="0 0 23 23" fill="none" xmlns="http://www.w3.org/2000/svg">
<path fill-rule="evenodd" clip-rule="evenodd" d="M3 0H20C21.65 0 23 1.35 23 3V20C23 21.65 21.65 23 20 23H3C1.35 23 0 21.65 0 20V3C0 1.35 1.35 0 3 0ZM21 3C21 2.458 20.542 2 20 2H3C2.458 2 2 2.458 2 3V20C2 20.542 2.458 21 3 21H20C20.542 21 21 20.542 21 20V3Z" fill="#C5C5C5"/>
<path d="M0 0V-1H-1V0H0ZM23 0H24V-1H23V0ZM23 23V24H24V23H23ZM0 23H-1V24H0V23ZM0 1H23V-1H0V1ZM22 0V23H24V0H22ZM23 22H0V24H23V22ZM1 23V0H-1V23H1Z" fill="white"/>
</svg>
